<svg width="82" height="98" viewBox="0 0 82 98" fill="none" xmlns="http://www.w3.org/2000/svg">
<path d="M68.5585 51.7875C68.5149 43.758 72.1312 37.6975 79.4511 33.2342C75.3555 27.3487 69.1684 24.1106 60.9989 23.4761C53.2651 22.8635 44.8124 28.0051 41.7189 28.0051C38.4511 28.0051 30.957 23.6949 25.0749 23.6949C12.9187 23.8918 0 33.4311 0 52.8377C0 58.57 1.0457 64.4919 3.13709 70.6035C5.92561 78.6331 15.9904 98.3241 26.491 97.9959C31.9809 97.8647 35.8587 94.0796 43.0043 94.0796C49.932 94.0796 53.5266 97.9959 59.6482 97.9959C70.2359 97.8428 79.3422 79.9458 82 71.8943C67.796 65.1775 68.5585 52.2032 68.5585 51.7875V51.7875ZM56.228 15.8623C62.1753 8.77347 61.6307 2.31917 61.4564 0C56.2062 0.306306 50.1281 3.58815 46.6642 7.63576C42.8518 11.9678 40.6079 17.3282 41.0871 23.3667C46.7731 23.8043 51.958 20.8725 56.228 15.8623V15.8623Z" fill="black"/>
</svg>
