<svg width="173" height="76" viewBox="0 0 173 76" fill="none" xmlns="http://www.w3.org/2000/svg">
<g clip-path="url(#clip0_109_1259)">
<path d="M37.9627 76C58.9115 76 75.9254 59.006 75.9254 38.0084C75.9254 17.0097 58.9115 0 37.9627 0C16.9816 0 0 17.0097 0 38.0084C0 59.006 16.9816 76 37.9627 76Z" fill="#A50034"/>
<path d="M36.4354 21.3284V54.6718H47.0168V51.6737H39.4851V21.3284H36.4354Z" fill="white"/>
<path d="M25.8402 30.426C28.3576 30.426 30.3869 28.3754 30.3869 25.8712C30.3869 23.3651 28.3576 21.3066 25.8402 21.3066C23.3228 21.3066 21.2935 23.3651 21.2935 25.8712C21.2935 28.3774 23.3228 30.426 25.8402 30.426Z" fill="white"/>
<path d="M39.4842 6.20297C39.0874 6.18329 38.333 6.15869 37.9726 6.15869C20.4498 6.15869 6.18896 20.4497 6.18896 37.9927C6.18896 46.5138 9.49413 54.5006 15.4807 60.5067C21.4919 66.499 29.4685 69.81 37.9726 69.81C46.4442 69.81 54.4188 66.499 60.4192 60.5067C66.4205 54.5006 69.7414 46.5138 69.7414 37.9927V36.5768H68.4557H47.0463V39.507H66.7142C66.7142 39.571 66.7142 39.8819 66.7005 39.9626C65.7006 54.9601 53.1969 66.8385 37.9726 66.8385C30.2661 66.8385 23.0399 63.8364 17.6014 58.3843C12.1451 52.9548 9.13856 45.7217 9.13856 37.9917C9.13856 30.306 12.1451 23.0356 17.6014 17.5893C23.0399 12.148 30.2661 9.14599 37.9726 9.14599C38.3045 9.14599 39.1119 9.14599 39.4842 9.16567V6.20297Z" fill="white"/>
<path d="M104.476 12.7936H93.0681V62.265H128.106V52.635H104.476V12.7936V12.7936ZM153.2 43.4124H162.491V52.0624C160.778 52.7157 157.438 53.3671 154.259 53.3671C143.992 53.3671 140.572 48.1433 140.572 37.5332C140.572 27.4152 143.829 21.4494 154.096 21.4494C159.802 21.4494 163.061 23.2461 165.746 26.6752L172.839 20.1427C168.519 13.9438 160.939 12.0664 153.853 12.0664C137.878 12.0664 129.487 20.8 129.487 37.4506C129.487 54.0204 137.065 62.9991 153.772 62.9991C161.43 62.9991 168.928 61.041 173 58.1846V34.1858H153.2V43.4124Z" fill="#6B6B6B"/>
</g>
<defs>
<clipPath id="clip0_109_1259">
<rect width="173" height="76" fill="white"/>
</clipPath>
</defs>
</svg>
