<svg width="189" height="34" viewBox="0 0 189 34" fill="none" xmlns="http://www.w3.org/2000/svg">
<g clip-path="url(#clip0_109_1270)">
<path d="M143.757 1.90091V5.67928H147.367C148.943 5.67928 149.979 6.69544 150.569 7.35225C151.041 7.89315 161.436 19.9401 161.686 20.257C161.935 20.5738 161.935 20.5775 161.935 20.7784V26.7482C161.935 27.0218 161.908 27.2948 161.856 27.5631C161.782 27.7365 161.672 27.8912 161.533 28.0167C161.395 28.1422 161.232 28.2354 161.055 28.2899C160.713 28.3336 160.37 28.3556 160.026 28.3556L156.413 28.351V32.1294H176.681V28.351H172.867C172.526 28.3527 172.185 28.3305 171.846 28.2846C171.669 28.2307 171.506 28.1377 171.368 28.0123C171.231 27.8868 171.121 27.732 171.049 27.5586C170.996 27.2903 170.968 27.0174 170.966 26.7436V20.7776C170.944 20.5815 170.992 20.3838 171.102 20.2215L182.347 7.10851C183.379 5.93395 183.916 5.67851 185.269 5.67851H189V1.90015H172.296V5.67096H174.818C174.953 5.66266 175.087 5.69419 175.205 5.76177C175.323 5.82936 175.42 5.93016 175.484 6.05222C175.547 6.17429 175.575 6.31247 175.565 6.45035C175.554 6.58824 175.504 6.72002 175.422 6.83005C175.369 6.90731 168.429 15.2489 168.342 15.3301C168.255 15.4112 168.199 15.3917 168.135 15.3029C168.07 15.214 161.213 6.83007 161.213 6.83007C160.729 6.22348 161.108 5.67097 161.675 5.67097H164.132V1.90016L143.757 1.90091Z" fill="#0F0F0F"/>
<path d="M94.0467 1.90088V5.67924H97.2818C99.6179 5.67924 99.7772 7.00889 99.7772 8.16798V25.8516C99.7772 26.9103 99.8372 28.363 98.3479 28.363H94.356V32.1376H111.401V28.363H107.243C105.583 28.363 105.507 27.5867 105.489 25.9369V10.7872L128.898 32.1376H134.851L134.538 8.0246C134.568 6.26278 134.674 5.67547 136.458 5.67547H140.189V1.90088H122.801V5.67547H126.619C128.373 5.67547 128.667 6.3671 128.69 8.0246L128.898 20.6433L108.577 1.90088H94.0467Z" fill="#0F0F0F"/>
<path d="M17.2935 0C13.6307 0 9.4689 0.703176 5.95351 2.31818C2.67246 3.81726 2.38254e-05 6.22411 2.38254e-05 10.2152C-0.0049619 12.3054 0.77271 14.3182 2.17352 15.8409C3.1223 16.7373 4.65344 18.2596 8.65268 19.1559C10.4406 19.5423 14.2622 20.1643 18.0687 20.5739C21.8752 20.9834 25.5645 21.3467 27.0765 21.7601C28.2785 22.0731 30.3005 22.4981 30.3005 24.8163C30.3005 27.1345 28.1727 27.8297 27.8022 27.9804C27.4318 28.1311 24.8761 29.3289 20.2872 29.3289C17.2468 29.2426 14.234 28.7131 11.34 27.7563C9.62766 27.1304 7.83256 26.3074 6.15801 24.2172C5.48204 23.2329 5.10691 22.0659 5.08012 20.8636H0.922115V32.7639H5.54153V31.1528C5.54077 31.0333 5.57124 30.9157 5.62975 30.8122C5.68825 30.7087 5.77269 30.623 5.87438 30.564C5.97608 30.5049 6.09135 30.4747 6.20829 30.4763C6.32524 30.4779 6.43964 30.5114 6.53971 30.5733C8.71582 31.5411 10.9794 32.2889 13.2979 32.8062C15.7247 33.3239 17.2937 33.6989 20.3101 33.6989C23.4931 33.7608 26.6652 33.303 29.7069 32.3429C31.7268 31.7768 33.6219 30.8206 35.2898 29.5259C36.228 28.7894 36.9862 27.8405 37.5051 26.7538C38.0239 25.6672 38.2891 24.4724 38.2799 23.2633C38.2959 20.9661 37.4287 18.7543 35.865 17.1041C34.9953 16.2417 33.9878 15.5376 32.886 15.0222C31.7016 14.4751 30.4719 14.0367 29.2116 13.7121C26.8151 13.1133 21.4328 12.3638 18.8587 12.101C16.1597 11.8151 11.4762 11.4169 9.60505 10.8257C9.03805 10.6442 7.88117 10.0844 7.88117 8.7128C7.88117 7.73529 8.41043 6.90834 9.45371 6.23993C11.1131 5.17742 14.4623 4.51637 17.955 4.51637C21.3358 4.47461 24.6889 5.14399 27.8059 6.48291C28.6432 6.85596 29.4306 7.33649 30.1492 7.91291C31.3205 8.93554 32.1317 10.3224 32.4585 11.8611H36.1898V1.5032H32.0318V2.70455C32.0318 3.09091 31.6538 3.60108 30.8978 3.17995C29.0229 2.18314 23.7535 0.0270436 17.2935 0V0Z" fill="#0F0F0F"/>
<path d="M67.3334 0C60.7827 0 53.8272 2.3179 49.896 5.96903C48.3973 7.36373 47.201 9.06368 46.3839 10.9595C45.5668 12.8553 45.1471 14.905 45.1518 16.9766C45.1284 19.0568 45.5395 21.1181 46.3576 23.023C47.1757 24.9278 48.382 26.6323 49.896 28.0227C54.1296 31.9134 60.4803 34 67.3334 34C74.1979 34 80.6844 31.9365 84.8159 28.0227C86.285 26.5997 87.457 24.8874 88.2612 22.9889C89.0653 21.0905 89.4851 19.0453 89.4952 16.9766C89.5154 14.91 89.1092 12.8623 88.3029 10.967C87.4966 9.07175 86.3085 7.37154 84.8159 5.97732C80.382 1.86641 74.5797 0 67.3334 0V0ZM67.3334 4.41979C70.9169 4.41979 74.3679 5.73766 76.6926 8.07517C78.9417 10.3392 80.1168 13.5383 80.1168 16.9615C80.1168 20.547 79.0476 23.4524 76.6926 25.8479C74.3377 28.2433 70.966 29.5259 67.3334 29.5259C63.7273 29.5259 60.2834 28.2163 57.9587 25.8479C56.8469 24.6688 55.974 23.2767 55.3902 21.7517C54.8063 20.2267 54.5231 18.5988 54.5567 16.9615C54.5567 13.5538 55.7172 10.3431 57.9587 8.07517C60.2834 5.72607 63.75 4.41979 67.3334 4.41979Z" fill="#0F0F0F"/>
</g>
<defs>
<clipPath id="clip0_109_1270">
<rect width="189" height="34" fill="white"/>
</clipPath>
</defs>
</svg>
