<svg width="24" height="24" viewBox="0 0 24 24" fill="none" xmlns="http://www.w3.org/2000/svg">
<path d="M10 16C11.6667 16 13.0833 15.4167 14.25 14.25C15.4167 13.0833 16 11.6667 16 10C16 8.33333 15.4167 6.91667 14.25 5.75C13.0833 4.58333 11.6667 4 10 4C8.33333 4 6.91667 4.58333 5.75 5.75C4.58333 6.91667 4 8.33333 4 10C4 11.6667 4.58333 13.0833 5.75 14.25C6.91667 15.4167 8.33333 16 10 16ZM10 18C7.76667 18 5.875 17.225 4.325 15.675C2.775 14.125 2 12.2333 2 10C2 7.76667 2.775 5.875 4.325 4.325C5.875 2.775 7.76667 2 10 2C12.2333 2 14.125 2.775 15.675 4.325C17.225 5.875 18 7.76667 18 10C18 10.9333 17.8543 11.8127 17.563 12.638C17.2717 13.4633 16.859 14.2173 16.325 14.9L21.3 19.875C21.5 20.075 21.6 20.3127 21.6 20.588C21.6 20.8633 21.5 21.1007 21.3 21.3C21.1 21.4993 20.8627 21.5993 20.588 21.6C20.3133 21.6007 20.0757 21.5007 19.875 21.3L14.9 16.325C14.2167 16.8583 13.4627 17.271 12.638 17.563C11.8133 17.855 10.934 18.0007 10 18Z" fill="black"/>
</svg>
