<svg xmlns="http://www.w3.org/2000/svg" width="48" height="48" viewBox="0 0 48 48"><defs><style>.a{fill:none;}.b,.c{fill:#8996ae;}.b{fill-rule:evenodd;}.c{opacity:0.3;}</style></defs><rect class="a" width="48" height="48"/><path class="b" d="M10,14H38a4,4,0,0,1,4,4V34a4,4,0,0,1-4,4H10a4,4,0,0,1-4-4V18A4,4,0,0,1,10,14ZM24,34a8,8,0,1,0-8-8A8,8,0,0,0,24,34Z"/><rect class="c" width="12" height="4" rx="2" transform="translate(18 8)"/><circle class="c" cx="4" cy="4" r="4" transform="translate(20 22)"/></svg>